<mxfile host="Electron" agent="Mozilla/5.0 (Windows NT 10.0; Win64; x64) AppleWebKit/537.36 (KHTML, like Gecko) draw.io/28.0.6 Chrome/138.0.7204.100 Electron/37.2.3 Safari/537.36" version="28.0.6">
  <diagram name="第 1 页" id="cejxMtZQo-CT8wwm4L09">
    <mxGraphModel dx="1288" dy="915" grid="1" gridSize="10" guides="1" tooltips="1" connect="1" arrows="1" fold="1" page="1" pageScale="1" pageWidth="827" pageHeight="1169" math="0" shadow="0">
      <root>
        <mxCell id="0" />
        <mxCell id="1" parent="0" />
        <mxCell id="VnCtMdweLz9wtOO9IcF--1" value="" style="shape=umlLifeline;perimeter=lifelinePerimeter;whiteSpace=wrap;html=1;container=1;dropTarget=0;collapsible=0;recursiveResize=0;outlineConnect=0;portConstraint=eastwest;newEdgeStyle={&quot;curved&quot;:0,&quot;rounded&quot;:0};participant=umlActor;" parent="1" vertex="1">
          <mxGeometry x="80" y="100" width="20" height="1250" as="geometry" />
        </mxCell>
        <mxCell id="VnCtMdweLz9wtOO9IcF--12" value="" style="html=1;points=[[0,0,0,0,5],[0,1,0,0,-5],[1,0,0,0,5],[1,1,0,0,-5]];perimeter=orthogonalPerimeter;outlineConnect=0;targetShapes=umlLifeline;portConstraint=eastwest;newEdgeStyle={&quot;curved&quot;:0,&quot;rounded&quot;:0};" parent="VnCtMdweLz9wtOO9IcF--1" vertex="1">
          <mxGeometry x="5" y="80" width="10" height="50" as="geometry" />
        </mxCell>
        <mxCell id="VnCtMdweLz9wtOO9IcF--45" value="" style="html=1;points=[[0,0,0,0,5],[0,1,0,0,-5],[1,0,0,0,5],[1,1,0,0,-5]];perimeter=orthogonalPerimeter;outlineConnect=0;targetShapes=umlLifeline;portConstraint=eastwest;newEdgeStyle={&quot;curved&quot;:0,&quot;rounded&quot;:0};" parent="VnCtMdweLz9wtOO9IcF--1" vertex="1">
          <mxGeometry x="5" y="334" width="10" height="56" as="geometry" />
        </mxCell>
        <mxCell id="AxUf1xsJegDbPLyApTB1-17" value="" style="html=1;points=[[0,0,0,0,5],[0,1,0,0,-5],[1,0,0,0,5],[1,1,0,0,-5]];perimeter=orthogonalPerimeter;outlineConnect=0;targetShapes=umlLifeline;portConstraint=eastwest;newEdgeStyle={&quot;curved&quot;:0,&quot;rounded&quot;:0};" parent="VnCtMdweLz9wtOO9IcF--1" vertex="1">
          <mxGeometry x="5" y="1176" width="10" height="30" as="geometry" />
        </mxCell>
        <mxCell id="VnCtMdweLz9wtOO9IcF--2" value=":Mobile App" style="shape=umlLifeline;perimeter=lifelinePerimeter;whiteSpace=wrap;html=1;container=1;dropTarget=0;collapsible=0;recursiveResize=0;outlineConnect=0;portConstraint=eastwest;newEdgeStyle={&quot;curved&quot;:0,&quot;rounded&quot;:0};fillColor=#dae8fc;strokeColor=#6c8ebf;" parent="1" vertex="1">
          <mxGeometry x="150" y="100" width="100" height="1200" as="geometry" />
        </mxCell>
        <mxCell id="VnCtMdweLz9wtOO9IcF--13" value="" style="html=1;points=[[0,0,0,0,5],[0,1,0,0,-5],[1,0,0,0,5],[1,1,0,0,-5]];perimeter=orthogonalPerimeter;outlineConnect=0;targetShapes=umlLifeline;portConstraint=eastwest;newEdgeStyle={&quot;curved&quot;:0,&quot;rounded&quot;:0};" parent="VnCtMdweLz9wtOO9IcF--2" vertex="1">
          <mxGeometry x="45" y="80" width="10" height="30" as="geometry" />
        </mxCell>
        <mxCell id="VnCtMdweLz9wtOO9IcF--14" value="1.Enter credentials" style="html=1;verticalAlign=bottom;endArrow=block;curved=0;rounded=0;entryX=0;entryY=0;entryDx=0;entryDy=5;" parent="VnCtMdweLz9wtOO9IcF--2" edge="1">
          <mxGeometry relative="1" as="geometry">
            <mxPoint x="-50" y="81" as="sourcePoint" />
            <mxPoint x="45" y="81" as="targetPoint" />
          </mxGeometry>
        </mxCell>
        <mxCell id="VnCtMdweLz9wtOO9IcF--30" value="" style="html=1;points=[[0,0,0,0,5],[0,1,0,0,-5],[1,0,0,0,5],[1,1,0,0,-5]];perimeter=orthogonalPerimeter;outlineConnect=0;targetShapes=umlLifeline;portConstraint=eastwest;newEdgeStyle={&quot;curved&quot;:0,&quot;rounded&quot;:0};" parent="VnCtMdweLz9wtOO9IcF--2" vertex="1">
          <mxGeometry x="45" y="210" width="10" height="20" as="geometry" />
        </mxCell>
        <mxCell id="VnCtMdweLz9wtOO9IcF--33" value="" style="html=1;points=[[0,0,0,0,5],[0,1,0,0,-5],[1,0,0,0,5],[1,1,0,0,-5]];perimeter=orthogonalPerimeter;outlineConnect=0;targetShapes=umlLifeline;portConstraint=eastwest;newEdgeStyle={&quot;curved&quot;:0,&quot;rounded&quot;:0};" parent="VnCtMdweLz9wtOO9IcF--2" vertex="1">
          <mxGeometry x="45" y="255" width="10" height="20" as="geometry" />
        </mxCell>
        <mxCell id="VnCtMdweLz9wtOO9IcF--37" value="" style="html=1;points=[[0,0,0,0,5],[0,1,0,0,-5],[1,0,0,0,5],[1,1,0,0,-5]];perimeter=orthogonalPerimeter;outlineConnect=0;targetShapes=umlLifeline;portConstraint=eastwest;newEdgeStyle={&quot;curved&quot;:0,&quot;rounded&quot;:0};" parent="VnCtMdweLz9wtOO9IcF--2" vertex="1">
          <mxGeometry x="45" y="331" width="10" height="129" as="geometry" />
        </mxCell>
        <mxCell id="VnCtMdweLz9wtOO9IcF--105" value="" style="html=1;points=[[0,0,0,0,5],[0,1,0,0,-5],[1,0,0,0,5],[1,1,0,0,-5]];perimeter=orthogonalPerimeter;outlineConnect=0;targetShapes=umlLifeline;portConstraint=eastwest;newEdgeStyle={&quot;curved&quot;:0,&quot;rounded&quot;:0};" parent="VnCtMdweLz9wtOO9IcF--2" vertex="1">
          <mxGeometry x="45" y="680" width="10" height="20" as="geometry" />
        </mxCell>
        <mxCell id="AxUf1xsJegDbPLyApTB1-13" value="" style="html=1;points=[[0,0,0,0,5],[0,1,0,0,-5],[1,0,0,0,5],[1,1,0,0,-5]];perimeter=orthogonalPerimeter;outlineConnect=0;targetShapes=umlLifeline;portConstraint=eastwest;newEdgeStyle={&quot;curved&quot;:0,&quot;rounded&quot;:0};" parent="VnCtMdweLz9wtOO9IcF--2" vertex="1">
          <mxGeometry x="45" y="1110" width="10" height="30" as="geometry" />
        </mxCell>
        <mxCell id="VnCtMdweLz9wtOO9IcF--3" value=":ViewModel" style="shape=umlLifeline;whiteSpace=wrap;html=1;container=1;dropTarget=0;collapsible=0;recursiveResize=0;outlineConnect=0;portConstraint=eastwest;newEdgeStyle={&quot;curved&quot;:0,&quot;rounded&quot;:0};fillColor=#dae8fc;strokeColor=#6c8ebf;points=[[0,0,0,0,5],[0,1,0,0,-5],[1,0,0,0,5],[1,1,0,0,-5]];perimeter=rectanglePerimeter;targetShapes=umlLifeline;participant=label;" parent="1" vertex="1">
          <mxGeometry x="300" y="100" width="100" height="1180" as="geometry" />
        </mxCell>
        <mxCell id="VnCtMdweLz9wtOO9IcF--21" value="" style="html=1;points=[[0,0,0,0,5],[0,1,0,0,-5],[1,0,0,0,5],[1,1,0,0,-5]];perimeter=orthogonalPerimeter;outlineConnect=0;targetShapes=umlLifeline;portConstraint=eastwest;newEdgeStyle={&quot;curved&quot;:0,&quot;rounded&quot;:0};" parent="VnCtMdweLz9wtOO9IcF--3" vertex="1">
          <mxGeometry x="45" y="100" width="10" height="40" as="geometry" />
        </mxCell>
        <mxCell id="VnCtMdweLz9wtOO9IcF--28" value="" style="html=1;points=[[0,0,0,0,5],[0,1,0,0,-5],[1,0,0,0,5],[1,1,0,0,-5]];perimeter=orthogonalPerimeter;outlineConnect=0;targetShapes=umlLifeline;portConstraint=eastwest;newEdgeStyle={&quot;curved&quot;:0,&quot;rounded&quot;:0};" parent="VnCtMdweLz9wtOO9IcF--3" vertex="1">
          <mxGeometry x="45" y="190" width="10" height="20" as="geometry" />
        </mxCell>
        <mxCell id="VnCtMdweLz9wtOO9IcF--32" value="" style="html=1;points=[[0,0,0,0,5],[0,1,0,0,-5],[1,0,0,0,5],[1,1,0,0,-5]];perimeter=orthogonalPerimeter;outlineConnect=0;targetShapes=umlLifeline;portConstraint=eastwest;newEdgeStyle={&quot;curved&quot;:0,&quot;rounded&quot;:0};" parent="VnCtMdweLz9wtOO9IcF--3" vertex="1">
          <mxGeometry x="45" y="240" width="10" height="20" as="geometry" />
        </mxCell>
        <mxCell id="VnCtMdweLz9wtOO9IcF--46" value="" style="html=1;points=[[0,0,0,0,5],[0,1,0,0,-5],[1,0,0,0,5],[1,1,0,0,-5]];perimeter=orthogonalPerimeter;outlineConnect=0;targetShapes=umlLifeline;portConstraint=eastwest;newEdgeStyle={&quot;curved&quot;:0,&quot;rounded&quot;:0};" parent="VnCtMdweLz9wtOO9IcF--3" vertex="1">
          <mxGeometry x="45" y="350" width="10" height="100" as="geometry" />
        </mxCell>
        <mxCell id="AxUf1xsJegDbPLyApTB1-10" value="" style="html=1;points=[[0,0,0,0,5],[0,1,0,0,-5],[1,0,0,0,5],[1,1,0,0,-5]];perimeter=orthogonalPerimeter;outlineConnect=0;targetShapes=umlLifeline;portConstraint=eastwest;newEdgeStyle={&quot;curved&quot;:0,&quot;rounded&quot;:0};" parent="VnCtMdweLz9wtOO9IcF--3" vertex="1">
          <mxGeometry x="45" y="1030" width="10" height="110" as="geometry" />
        </mxCell>
        <mxCell id="VnCtMdweLz9wtOO9IcF--4" value=":Repository" style="shape=umlLifeline;perimeter=lifelinePerimeter;whiteSpace=wrap;html=1;container=1;dropTarget=0;collapsible=0;recursiveResize=0;outlineConnect=0;portConstraint=eastwest;newEdgeStyle={&quot;curved&quot;:0,&quot;rounded&quot;:0};fillColor=#dae8fc;strokeColor=#6c8ebf;" parent="1" vertex="1">
          <mxGeometry x="470" y="100" width="100" height="1190" as="geometry" />
        </mxCell>
        <mxCell id="VnCtMdweLz9wtOO9IcF--23" value="" style="html=1;points=[[0,0,0,0,5],[0,1,0,0,-5],[1,0,0,0,5],[1,1,0,0,-5]];perimeter=orthogonalPerimeter;outlineConnect=0;targetShapes=umlLifeline;portConstraint=eastwest;newEdgeStyle={&quot;curved&quot;:0,&quot;rounded&quot;:0};" parent="VnCtMdweLz9wtOO9IcF--4" vertex="1">
          <mxGeometry x="45" y="120" width="10" height="130" as="geometry" />
        </mxCell>
        <mxCell id="VnCtMdweLz9wtOO9IcF--47" value="" style="html=1;points=[[0,0,0,0,5],[0,1,0,0,-5],[1,0,0,0,5],[1,1,0,0,-5]];perimeter=orthogonalPerimeter;outlineConnect=0;targetShapes=umlLifeline;portConstraint=eastwest;newEdgeStyle={&quot;curved&quot;:0,&quot;rounded&quot;:0};" parent="VnCtMdweLz9wtOO9IcF--4" vertex="1">
          <mxGeometry x="45" y="367" width="10" height="55" as="geometry" />
        </mxCell>
        <mxCell id="VnCtMdweLz9wtOO9IcF--100" value="" style="html=1;points=[[0,0,0,0,5],[0,1,0,0,-5],[1,0,0,0,5],[1,1,0,0,-5]];perimeter=orthogonalPerimeter;outlineConnect=0;targetShapes=umlLifeline;portConstraint=eastwest;newEdgeStyle={&quot;curved&quot;:0,&quot;rounded&quot;:0};" parent="VnCtMdweLz9wtOO9IcF--4" vertex="1">
          <mxGeometry x="45" y="600" width="10" height="50" as="geometry" />
        </mxCell>
        <mxCell id="VnCtMdweLz9wtOO9IcF--5" value=":DB" style="shape=umlLifeline;whiteSpace=wrap;html=1;container=1;dropTarget=0;collapsible=0;recursiveResize=0;outlineConnect=0;portConstraint=eastwest;newEdgeStyle={&quot;curved&quot;:0,&quot;rounded&quot;:0};fillColor=#dae8fc;strokeColor=#6c8ebf;points=[[0,0,0,0,5],[0,1,0,0,-5],[1,0,0,0,5],[1,1,0,0,-5]];perimeter=rectanglePerimeter;targetShapes=umlLifeline;participant=label;" parent="1" vertex="1">
          <mxGeometry x="620" y="100" width="100" height="1200" as="geometry" />
        </mxCell>
        <mxCell id="VnCtMdweLz9wtOO9IcF--24" value="" style="html=1;points=[[0,0,0,0,5],[0,1,0,0,-5],[1,0,0,0,5],[1,1,0,0,-5]];perimeter=orthogonalPerimeter;outlineConnect=0;targetShapes=umlLifeline;portConstraint=eastwest;newEdgeStyle={&quot;curved&quot;:0,&quot;rounded&quot;:0};" parent="VnCtMdweLz9wtOO9IcF--5" vertex="1">
          <mxGeometry x="45" y="130" width="10" height="40" as="geometry" />
        </mxCell>
        <mxCell id="VnCtMdweLz9wtOO9IcF--48" value="" style="html=1;points=[[0,0,0,0,5],[0,1,0,0,-5],[1,0,0,0,5],[1,1,0,0,-5]];perimeter=orthogonalPerimeter;outlineConnect=0;targetShapes=umlLifeline;portConstraint=eastwest;newEdgeStyle={&quot;curved&quot;:0,&quot;rounded&quot;:0};" parent="VnCtMdweLz9wtOO9IcF--5" vertex="1">
          <mxGeometry x="45" y="374" width="10" height="26" as="geometry" />
        </mxCell>
        <mxCell id="VnCtMdweLz9wtOO9IcF--99" value="" style="html=1;points=[[0,0,0,0,5],[0,1,0,0,-5],[1,0,0,0,5],[1,1,0,0,-5]];perimeter=orthogonalPerimeter;outlineConnect=0;targetShapes=umlLifeline;portConstraint=eastwest;newEdgeStyle={&quot;curved&quot;:0,&quot;rounded&quot;:0};" parent="VnCtMdweLz9wtOO9IcF--5" vertex="1">
          <mxGeometry x="45" y="600" width="10" height="40" as="geometry" />
        </mxCell>
        <mxCell id="VnCtMdweLz9wtOO9IcF--109" value="" style="html=1;points=[[0,0,0,0,5],[0,1,0,0,-5],[1,0,0,0,5],[1,1,0,0,-5]];perimeter=orthogonalPerimeter;outlineConnect=0;targetShapes=umlLifeline;portConstraint=eastwest;newEdgeStyle={&quot;curved&quot;:0,&quot;rounded&quot;:0};" parent="VnCtMdweLz9wtOO9IcF--5" vertex="1">
          <mxGeometry x="45" y="854" width="10" height="36" as="geometry" />
        </mxCell>
        <mxCell id="VnCtMdweLz9wtOO9IcF--6" value=":External API" style="shape=umlLifeline;perimeter=lifelinePerimeter;whiteSpace=wrap;html=1;container=1;dropTarget=0;collapsible=0;recursiveResize=0;outlineConnect=0;portConstraint=eastwest;newEdgeStyle={&quot;curved&quot;:0,&quot;rounded&quot;:0};fillColor=#dae8fc;strokeColor=#6c8ebf;" parent="1" vertex="1">
          <mxGeometry x="770" y="100" width="100" height="1190" as="geometry" />
        </mxCell>
        <mxCell id="VnCtMdweLz9wtOO9IcF--96" value="" style="html=1;points=[[0,0,0,0,5],[0,1,0,0,-5],[1,0,0,0,5],[1,1,0,0,-5]];perimeter=orthogonalPerimeter;outlineConnect=0;targetShapes=umlLifeline;portConstraint=eastwest;newEdgeStyle={&quot;curved&quot;:0,&quot;rounded&quot;:0};" parent="VnCtMdweLz9wtOO9IcF--6" vertex="1">
          <mxGeometry x="45" y="554" width="10" height="26" as="geometry" />
        </mxCell>
        <mxCell id="VnCtMdweLz9wtOO9IcF--20" value="verifyUser(email, pw)" style="html=1;verticalAlign=bottom;endArrow=block;curved=0;rounded=0;" parent="1" target="VnCtMdweLz9wtOO9IcF--4" edge="1">
          <mxGeometry x="0.0046" width="80" relative="1" as="geometry">
            <mxPoint x="360" y="220" as="sourcePoint" />
            <mxPoint x="459.5" y="220" as="targetPoint" />
            <mxPoint as="offset" />
          </mxGeometry>
        </mxCell>
        <mxCell id="VnCtMdweLz9wtOO9IcF--22" value="submitLogin(email,pw)" style="html=1;verticalAlign=bottom;endArrow=block;curved=0;rounded=0;" parent="1" target="VnCtMdweLz9wtOO9IcF--21" edge="1">
          <mxGeometry width="80" relative="1" as="geometry">
            <mxPoint x="210" y="200" as="sourcePoint" />
            <mxPoint x="290" y="200" as="targetPoint" />
          </mxGeometry>
        </mxCell>
        <mxCell id="VnCtMdweLz9wtOO9IcF--25" value="queryUser()" style="html=1;verticalAlign=bottom;endArrow=block;curved=0;rounded=0;entryX=0;entryY=0;entryDx=0;entryDy=5;entryPerimeter=0;" parent="1" edge="1" target="VnCtMdweLz9wtOO9IcF--24">
          <mxGeometry x="0.0087" width="80" relative="1" as="geometry">
            <mxPoint x="530" y="233" as="sourcePoint" />
            <mxPoint x="645" y="233" as="targetPoint" />
            <mxPoint as="offset" />
          </mxGeometry>
        </mxCell>
        <mxCell id="VnCtMdweLz9wtOO9IcF--26" value="userRecord" style="html=1;verticalAlign=bottom;endArrow=open;dashed=1;endSize=8;curved=0;rounded=0;exitX=0;exitY=1;exitDx=0;exitDy=-5;exitPerimeter=0;" parent="1" edge="1" source="VnCtMdweLz9wtOO9IcF--24">
          <mxGeometry x="0.0087" relative="1" as="geometry">
            <mxPoint x="640" y="266" as="sourcePoint" />
            <mxPoint x="525" y="266" as="targetPoint" />
            <mxPoint as="offset" />
          </mxGeometry>
        </mxCell>
        <mxCell id="VnCtMdweLz9wtOO9IcF--27" value="authOK(session)" style="html=1;verticalAlign=bottom;endArrow=open;dashed=1;endSize=8;curved=0;rounded=0;" parent="1" source="VnCtMdweLz9wtOO9IcF--4" edge="1">
          <mxGeometry x="0.0087" relative="1" as="geometry">
            <mxPoint x="485" y="290" as="sourcePoint" />
            <mxPoint x="360" y="291" as="targetPoint" />
            <mxPoint as="offset" />
          </mxGeometry>
        </mxCell>
        <mxCell id="VnCtMdweLz9wtOO9IcF--29" value="showHome()" style="html=1;verticalAlign=bottom;endArrow=open;dashed=1;endSize=8;curved=0;rounded=0;" parent="1" source="VnCtMdweLz9wtOO9IcF--28" target="VnCtMdweLz9wtOO9IcF--30" edge="1">
          <mxGeometry relative="1" as="geometry">
            <mxPoint x="310" y="310" as="sourcePoint" />
            <mxPoint x="230" y="310" as="targetPoint" />
            <Array as="points">
              <mxPoint x="270" y="310" />
            </Array>
          </mxGeometry>
        </mxCell>
        <mxCell id="VnCtMdweLz9wtOO9IcF--31" value="authFailed()" style="html=1;verticalAlign=bottom;endArrow=open;dashed=1;endSize=8;curved=0;rounded=0;entryX=1;entryY=0;entryDx=0;entryDy=5;entryPerimeter=0;" parent="1" source="VnCtMdweLz9wtOO9IcF--4" target="VnCtMdweLz9wtOO9IcF--32" edge="1">
          <mxGeometry relative="1" as="geometry">
            <mxPoint x="480" y="345" as="sourcePoint" />
            <mxPoint x="400" y="340" as="targetPoint" />
          </mxGeometry>
        </mxCell>
        <mxCell id="VnCtMdweLz9wtOO9IcF--34" value="showLoginError()" style="html=1;verticalAlign=bottom;endArrow=open;dashed=1;endSize=8;curved=0;rounded=0;" parent="1" edge="1">
          <mxGeometry x="0.0095" relative="1" as="geometry">
            <mxPoint x="340" y="360" as="sourcePoint" />
            <mxPoint x="207" y="360" as="targetPoint" />
            <mxPoint as="offset" />
          </mxGeometry>
        </mxCell>
        <mxCell id="VnCtMdweLz9wtOO9IcF--36" value="2.Input glucose value" style="html=1;verticalAlign=bottom;endArrow=block;curved=0;rounded=0;" parent="1" edge="1">
          <mxGeometry width="80" relative="1" as="geometry">
            <mxPoint x="97" y="435" as="sourcePoint" />
            <mxPoint x="196.5" y="435" as="targetPoint" />
          </mxGeometry>
        </mxCell>
        <mxCell id="VnCtMdweLz9wtOO9IcF--49" value="addGlucose(value)" style="html=1;verticalAlign=bottom;endArrow=block;curved=0;rounded=0;" parent="1" target="VnCtMdweLz9wtOO9IcF--46" edge="1">
          <mxGeometry width="80" relative="1" as="geometry">
            <mxPoint x="210" y="450" as="sourcePoint" />
            <mxPoint x="290" y="450" as="targetPoint" />
            <Array as="points">
              <mxPoint x="290" y="450" />
            </Array>
          </mxGeometry>
        </mxCell>
        <mxCell id="VnCtMdweLz9wtOO9IcF--50" value="saveGlucose(record)" style="html=1;verticalAlign=bottom;endArrow=block;curved=0;rounded=0;" parent="1" target="VnCtMdweLz9wtOO9IcF--4" edge="1">
          <mxGeometry width="80" relative="1" as="geometry">
            <mxPoint x="360" y="470" as="sourcePoint" />
            <mxPoint x="485" y="470" as="targetPoint" />
          </mxGeometry>
        </mxCell>
        <mxCell id="VnCtMdweLz9wtOO9IcF--51" value="insert(record)" style="html=1;verticalAlign=bottom;endArrow=block;curved=0;rounded=0;entryX=0;entryY=0;entryDx=0;entryDy=5;entryPerimeter=0;" parent="1" target="VnCtMdweLz9wtOO9IcF--48" edge="1">
          <mxGeometry width="80" relative="1" as="geometry">
            <mxPoint x="530" y="480" as="sourcePoint" />
            <mxPoint x="610" y="480" as="targetPoint" />
          </mxGeometry>
        </mxCell>
        <mxCell id="VnCtMdweLz9wtOO9IcF--52" value="saved()" style="html=1;verticalAlign=bottom;endArrow=open;dashed=1;endSize=8;curved=0;rounded=0;exitX=0;exitY=1;exitDx=0;exitDy=-5;exitPerimeter=0;" parent="1" edge="1" source="VnCtMdweLz9wtOO9IcF--48">
          <mxGeometry relative="1" as="geometry">
            <mxPoint x="630" y="500" as="sourcePoint" />
            <mxPoint x="530" y="495" as="targetPoint" />
            <Array as="points" />
          </mxGeometry>
        </mxCell>
        <mxCell id="VnCtMdweLz9wtOO9IcF--54" value="saved()" style="html=1;verticalAlign=bottom;endArrow=open;dashed=1;endSize=8;curved=0;rounded=0;" parent="1" source="VnCtMdweLz9wtOO9IcF--4" edge="1">
          <mxGeometry relative="1" as="geometry">
            <mxPoint x="466" y="522" as="sourcePoint" />
            <mxPoint x="356" y="522" as="targetPoint" />
            <Array as="points">
              <mxPoint x="436" y="522" />
            </Array>
          </mxGeometry>
        </mxCell>
        <mxCell id="VnCtMdweLz9wtOO9IcF--56" value="refreshGlucoseList()" style="html=1;verticalAlign=bottom;endArrow=open;dashed=1;endSize=8;curved=0;rounded=0;" parent="1" edge="1">
          <mxGeometry relative="1" as="geometry">
            <mxPoint x="342" y="550" as="sourcePoint" />
            <mxPoint x="210" y="550" as="targetPoint" />
          </mxGeometry>
        </mxCell>
        <mxCell id="VnCtMdweLz9wtOO9IcF--87" value="" style="html=1;points=[[0,0,0,0,5],[0,1,0,0,-5],[1,0,0,0,5],[1,1,0,0,-5]];perimeter=orthogonalPerimeter;outlineConnect=0;targetShapes=umlLifeline;portConstraint=eastwest;newEdgeStyle={&quot;curved&quot;:0,&quot;rounded&quot;:0};" parent="1" vertex="1">
          <mxGeometry x="85" y="608" width="10" height="56" as="geometry" />
        </mxCell>
        <mxCell id="VnCtMdweLz9wtOO9IcF--88" value="" style="html=1;points=[[0,0,0,0,5],[0,1,0,0,-5],[1,0,0,0,5],[1,1,0,0,-5]];perimeter=orthogonalPerimeter;outlineConnect=0;targetShapes=umlLifeline;portConstraint=eastwest;newEdgeStyle={&quot;curved&quot;:0,&quot;rounded&quot;:0};" parent="1" vertex="1">
          <mxGeometry x="195" y="605" width="10" height="129" as="geometry" />
        </mxCell>
        <mxCell id="VnCtMdweLz9wtOO9IcF--89" value="" style="html=1;points=[[0,0,0,0,5],[0,1,0,0,-5],[1,0,0,0,5],[1,1,0,0,-5]];perimeter=orthogonalPerimeter;outlineConnect=0;targetShapes=umlLifeline;portConstraint=eastwest;newEdgeStyle={&quot;curved&quot;:0,&quot;rounded&quot;:0};" parent="1" vertex="1">
          <mxGeometry x="345" y="624" width="10" height="156" as="geometry" />
        </mxCell>
        <mxCell id="VnCtMdweLz9wtOO9IcF--90" value="" style="html=1;points=[[0,0,0,0,5],[0,1,0,0,-5],[1,0,0,0,5],[1,1,0,0,-5]];perimeter=orthogonalPerimeter;outlineConnect=0;targetShapes=umlLifeline;portConstraint=eastwest;newEdgeStyle={&quot;curved&quot;:0,&quot;rounded&quot;:0};" parent="1" vertex="1">
          <mxGeometry x="515" y="641" width="10" height="39" as="geometry" />
        </mxCell>
        <mxCell id="VnCtMdweLz9wtOO9IcF--91" value="3.Capture meal photo" style="html=1;verticalAlign=bottom;endArrow=block;curved=0;rounded=0;" parent="1" edge="1">
          <mxGeometry width="80" relative="1" as="geometry">
            <mxPoint x="97" y="609" as="sourcePoint" />
            <mxPoint x="196.5" y="609" as="targetPoint" />
          </mxGeometry>
        </mxCell>
        <mxCell id="VnCtMdweLz9wtOO9IcF--92" value="logMeal(input)" style="html=1;verticalAlign=bottom;endArrow=block;curved=0;rounded=0;" parent="1" target="VnCtMdweLz9wtOO9IcF--89" edge="1">
          <mxGeometry width="80" relative="1" as="geometry">
            <mxPoint x="210" y="624" as="sourcePoint" />
            <mxPoint x="290" y="624" as="targetPoint" />
            <Array as="points">
              <mxPoint x="290" y="624" />
            </Array>
          </mxGeometry>
        </mxCell>
        <mxCell id="VnCtMdweLz9wtOO9IcF--93" value="analyzeAndSaveMeal(input)" style="html=1;verticalAlign=bottom;endArrow=block;curved=0;rounded=0;" parent="1" target="VnCtMdweLz9wtOO9IcF--4" edge="1">
          <mxGeometry x="0.76" y="4" width="80" relative="1" as="geometry">
            <mxPoint x="360" y="644" as="sourcePoint" />
            <mxPoint x="485" y="644" as="targetPoint" />
            <mxPoint as="offset" />
          </mxGeometry>
        </mxCell>
        <mxCell id="VnCtMdweLz9wtOO9IcF--94" value="mealSaved(NutritionInfo)" style="html=1;verticalAlign=bottom;endArrow=open;dashed=1;endSize=8;curved=0;rounded=0;" parent="1" source="VnCtMdweLz9wtOO9IcF--4" edge="1">
          <mxGeometry relative="1" as="geometry">
            <mxPoint x="489" y="750" as="sourcePoint" />
            <mxPoint x="355" y="750" as="targetPoint" />
            <Array as="points">
              <mxPoint x="435" y="750" />
            </Array>
          </mxGeometry>
        </mxCell>
        <mxCell id="VnCtMdweLz9wtOO9IcF--95" value="refreshGlucoseList()" style="html=1;verticalAlign=bottom;endArrow=open;dashed=1;endSize=8;curved=0;rounded=0;" parent="1" edge="1">
          <mxGeometry relative="1" as="geometry">
            <mxPoint x="341" y="724" as="sourcePoint" />
            <mxPoint x="210" y="724" as="targetPoint" />
          </mxGeometry>
        </mxCell>
        <mxCell id="VnCtMdweLz9wtOO9IcF--97" value="estimateNutrition(input)" style="html=1;verticalAlign=bottom;endArrow=block;curved=0;rounded=0;" parent="1" target="VnCtMdweLz9wtOO9IcF--6" edge="1">
          <mxGeometry width="80" relative="1" as="geometry">
            <mxPoint x="530" y="660" as="sourcePoint" />
            <mxPoint x="782" y="660" as="targetPoint" />
          </mxGeometry>
        </mxCell>
        <mxCell id="VnCtMdweLz9wtOO9IcF--98" value="NutritionInfo" style="html=1;verticalAlign=bottom;endArrow=open;dashed=1;endSize=8;curved=0;rounded=0;" parent="1" source="VnCtMdweLz9wtOO9IcF--6" edge="1">
          <mxGeometry relative="1" as="geometry">
            <mxPoint x="780" y="680" as="sourcePoint" />
            <mxPoint x="530" y="680" as="targetPoint" />
            <mxPoint as="offset" />
          </mxGeometry>
        </mxCell>
        <mxCell id="VnCtMdweLz9wtOO9IcF--101" value="insert(record+Nutrition)" style="html=1;verticalAlign=bottom;endArrow=block;curved=0;rounded=0;entryX=0;entryY=0;entryDx=0;entryDy=5;entryPerimeter=0;" parent="1" target="VnCtMdweLz9wtOO9IcF--99" edge="1">
          <mxGeometry width="80" relative="1" as="geometry">
            <mxPoint x="530" y="705" as="sourcePoint" />
            <mxPoint x="655" y="701.5" as="targetPoint" />
            <mxPoint as="offset" />
          </mxGeometry>
        </mxCell>
        <mxCell id="VnCtMdweLz9wtOO9IcF--102" value="saved()" style="html=1;verticalAlign=bottom;endArrow=open;dashed=1;endSize=8;curved=0;rounded=0;" parent="1" edge="1">
          <mxGeometry relative="1" as="geometry">
            <mxPoint x="665.5" y="738" as="sourcePoint" />
            <mxPoint x="525" y="738" as="targetPoint" />
          </mxGeometry>
        </mxCell>
        <mxCell id="VnCtMdweLz9wtOO9IcF--106" value="showMeal(NutritionInfo)" style="html=1;verticalAlign=bottom;endArrow=open;dashed=1;endSize=8;curved=0;rounded=0;" parent="1" edge="1">
          <mxGeometry relative="1" as="geometry">
            <mxPoint x="314" y="782" as="sourcePoint" />
            <mxPoint x="204" y="782" as="targetPoint" />
          </mxGeometry>
        </mxCell>
        <mxCell id="VnCtMdweLz9wtOO9IcF--107" value="" style="html=1;points=[[0,0,0,0,5],[0,1,0,0,-5],[1,0,0,0,5],[1,1,0,0,-5]];perimeter=orthogonalPerimeter;outlineConnect=0;targetShapes=umlLifeline;portConstraint=eastwest;newEdgeStyle={&quot;curved&quot;:0,&quot;rounded&quot;:0};" parent="1" vertex="1">
          <mxGeometry x="195" y="1034" width="10" height="20" as="geometry" />
        </mxCell>
        <mxCell id="VnCtMdweLz9wtOO9IcF--108" value="" style="html=1;points=[[0,0,0,0,5],[0,1,0,0,-5],[1,0,0,0,5],[1,1,0,0,-5]];perimeter=orthogonalPerimeter;outlineConnect=0;targetShapes=umlLifeline;portConstraint=eastwest;newEdgeStyle={&quot;curved&quot;:0,&quot;rounded&quot;:0};" parent="1" vertex="1">
          <mxGeometry x="515" y="954" width="10" height="50" as="geometry" />
        </mxCell>
        <mxCell id="VnCtMdweLz9wtOO9IcF--110" value="" style="html=1;points=[[0,0,0,0,5],[0,1,0,0,-5],[1,0,0,0,5],[1,1,0,0,-5]];perimeter=orthogonalPerimeter;outlineConnect=0;targetShapes=umlLifeline;portConstraint=eastwest;newEdgeStyle={&quot;curved&quot;:0,&quot;rounded&quot;:0};" parent="1" vertex="1">
          <mxGeometry x="815" y="908" width="10" height="26" as="geometry" />
        </mxCell>
        <mxCell id="VnCtMdweLz9wtOO9IcF--112" value="" style="html=1;points=[[0,0,0,0,5],[0,1,0,0,-5],[1,0,0,0,5],[1,1,0,0,-5]];perimeter=orthogonalPerimeter;outlineConnect=0;targetShapes=umlLifeline;portConstraint=eastwest;newEdgeStyle={&quot;curved&quot;:0,&quot;rounded&quot;:0};" parent="1" vertex="1">
          <mxGeometry x="195" y="880" width="10" height="108" as="geometry" />
        </mxCell>
        <mxCell id="VnCtMdweLz9wtOO9IcF--113" value="" style="html=1;points=[[0,0,0,0,5],[0,1,0,0,-5],[1,0,0,0,5],[1,1,0,0,-5]];perimeter=orthogonalPerimeter;outlineConnect=0;targetShapes=umlLifeline;portConstraint=eastwest;newEdgeStyle={&quot;curved&quot;:0,&quot;rounded&quot;:0};" parent="1" vertex="1">
          <mxGeometry x="345" y="878" width="10" height="156" as="geometry" />
        </mxCell>
        <mxCell id="VnCtMdweLz9wtOO9IcF--114" value="" style="html=1;points=[[0,0,0,0,5],[0,1,0,0,-5],[1,0,0,0,5],[1,1,0,0,-5]];perimeter=orthogonalPerimeter;outlineConnect=0;targetShapes=umlLifeline;portConstraint=eastwest;newEdgeStyle={&quot;curved&quot;:0,&quot;rounded&quot;:0};" parent="1" vertex="1">
          <mxGeometry x="515" y="895" width="10" height="39" as="geometry" />
        </mxCell>
        <mxCell id="VnCtMdweLz9wtOO9IcF--116" value="4.syncActivity()" style="html=1;verticalAlign=bottom;endArrow=block;curved=0;rounded=0;" parent="1" source="VnCtMdweLz9wtOO9IcF--2" edge="1">
          <mxGeometry x="-0.0035" width="80" relative="1" as="geometry">
            <mxPoint x="239" y="881" as="sourcePoint" />
            <mxPoint x="344" y="881" as="targetPoint" />
            <Array as="points">
              <mxPoint x="319" y="881" />
            </Array>
            <mxPoint as="offset" />
          </mxGeometry>
        </mxCell>
        <mxCell id="VnCtMdweLz9wtOO9IcF--117" value="fetchActivity()" style="html=1;verticalAlign=bottom;endArrow=block;curved=0;rounded=0;" parent="1" target="VnCtMdweLz9wtOO9IcF--4" edge="1">
          <mxGeometry width="80" relative="1" as="geometry">
            <mxPoint x="360" y="898" as="sourcePoint" />
            <mxPoint x="485" y="898" as="targetPoint" />
          </mxGeometry>
        </mxCell>
        <mxCell id="VnCtMdweLz9wtOO9IcF--118" value="activitySynced()" style="html=1;verticalAlign=bottom;endArrow=open;dashed=1;endSize=8;curved=0;rounded=0;" parent="1" source="VnCtMdweLz9wtOO9IcF--4" edge="1">
          <mxGeometry relative="1" as="geometry">
            <mxPoint x="489" y="1004" as="sourcePoint" />
            <mxPoint x="355" y="1004" as="targetPoint" />
            <Array as="points">
              <mxPoint x="435" y="1004" />
            </Array>
          </mxGeometry>
        </mxCell>
        <mxCell id="VnCtMdweLz9wtOO9IcF--119" value="refreshGlucoseList()" style="html=1;verticalAlign=bottom;endArrow=open;dashed=1;endSize=8;curved=0;rounded=0;" parent="1" edge="1">
          <mxGeometry x="-0.0687" y="2" relative="1" as="geometry">
            <mxPoint x="341" y="978" as="sourcePoint" />
            <mxPoint x="210" y="978" as="targetPoint" />
            <mxPoint as="offset" />
          </mxGeometry>
        </mxCell>
        <mxCell id="VnCtMdweLz9wtOO9IcF--120" value="getActivityData()" style="html=1;verticalAlign=bottom;endArrow=block;curved=0;rounded=0;" parent="1" target="VnCtMdweLz9wtOO9IcF--6" edge="1">
          <mxGeometry width="80" relative="1" as="geometry">
            <mxPoint x="530" y="914" as="sourcePoint" />
            <mxPoint x="782" y="914" as="targetPoint" />
          </mxGeometry>
        </mxCell>
        <mxCell id="VnCtMdweLz9wtOO9IcF--121" value="ActivityData" style="html=1;verticalAlign=bottom;endArrow=open;dashed=1;endSize=8;curved=0;rounded=0;" parent="1" source="VnCtMdweLz9wtOO9IcF--6" edge="1">
          <mxGeometry relative="1" as="geometry">
            <mxPoint x="780" y="934" as="sourcePoint" />
            <mxPoint x="530" y="934" as="targetPoint" />
            <mxPoint as="offset" />
          </mxGeometry>
        </mxCell>
        <mxCell id="VnCtMdweLz9wtOO9IcF--122" value="upsert(ActivityRecords)" style="html=1;verticalAlign=bottom;endArrow=block;curved=0;rounded=0;entryX=0;entryY=0;entryDx=0;entryDy=5;entryPerimeter=0;" parent="1" target="VnCtMdweLz9wtOO9IcF--109" edge="1">
          <mxGeometry width="80" relative="1" as="geometry">
            <mxPoint x="530" y="960" as="sourcePoint" />
            <mxPoint x="645" y="954" as="targetPoint" />
          </mxGeometry>
        </mxCell>
        <mxCell id="VnCtMdweLz9wtOO9IcF--123" value="updated()" style="html=1;verticalAlign=bottom;endArrow=open;dashed=1;endSize=8;curved=0;rounded=0;" parent="1" edge="1">
          <mxGeometry x="-0.0038" relative="1" as="geometry">
            <mxPoint x="658.5" y="988" as="sourcePoint" />
            <mxPoint x="528" y="988" as="targetPoint" />
            <mxPoint as="offset" />
          </mxGeometry>
        </mxCell>
        <mxCell id="VnCtMdweLz9wtOO9IcF--124" value="updateActivitySummary()" style="html=1;verticalAlign=bottom;endArrow=open;dashed=1;endSize=8;curved=0;rounded=0;" parent="1" edge="1">
          <mxGeometry relative="1" as="geometry">
            <mxPoint x="340" y="1036" as="sourcePoint" />
            <mxPoint x="210" y="1036" as="targetPoint" />
          </mxGeometry>
        </mxCell>
        <mxCell id="AxUf1xsJegDbPLyApTB1-1" value=":Engine" style="shape=umlLifeline;perimeter=lifelinePerimeter;whiteSpace=wrap;html=1;container=1;dropTarget=0;collapsible=0;recursiveResize=0;outlineConnect=0;portConstraint=eastwest;newEdgeStyle={&quot;curved&quot;:0,&quot;rounded&quot;:0};fillColor=#dae8fc;strokeColor=#6c8ebf;" parent="1" vertex="1">
          <mxGeometry x="930" y="100" width="100" height="1200" as="geometry" />
        </mxCell>
        <mxCell id="AxUf1xsJegDbPLyApTB1-7" value="" style="html=1;points=[[0,0,0,0,5],[0,1,0,0,-5],[1,0,0,0,5],[1,1,0,0,-5]];perimeter=orthogonalPerimeter;outlineConnect=0;targetShapes=umlLifeline;portConstraint=eastwest;newEdgeStyle={&quot;curved&quot;:0,&quot;rounded&quot;:0};" parent="AxUf1xsJegDbPLyApTB1-1" vertex="1">
          <mxGeometry x="45" y="1030" width="10" height="50" as="geometry" />
        </mxCell>
        <mxCell id="AxUf1xsJegDbPLyApTB1-3" value=":Notification" style="shape=umlLifeline;perimeter=lifelinePerimeter;whiteSpace=wrap;html=1;container=1;dropTarget=0;collapsible=0;recursiveResize=0;outlineConnect=0;portConstraint=eastwest;newEdgeStyle={&quot;curved&quot;:0,&quot;rounded&quot;:0};fillColor=#dae8fc;strokeColor=#6c8ebf;" parent="1" vertex="1">
          <mxGeometry x="1060" y="100" width="100" height="1230" as="geometry" />
        </mxCell>
        <mxCell id="AxUf1xsJegDbPLyApTB1-9" value="" style="html=1;points=[[0,0,0,0,5],[0,1,0,0,-5],[1,0,0,0,5],[1,1,0,0,-5]];perimeter=orthogonalPerimeter;outlineConnect=0;targetShapes=umlLifeline;portConstraint=eastwest;newEdgeStyle={&quot;curved&quot;:0,&quot;rounded&quot;:0};" parent="AxUf1xsJegDbPLyApTB1-3" vertex="1">
          <mxGeometry x="45" y="1140" width="10" height="50" as="geometry" />
        </mxCell>
        <mxCell id="AxUf1xsJegDbPLyApTB1-11" value="updateMetrics(glucose, meals, activity)" style="html=1;verticalAlign=bottom;endArrow=block;curved=0;rounded=0;" parent="1" target="AxUf1xsJegDbPLyApTB1-1" edge="1">
          <mxGeometry width="80" relative="1" as="geometry">
            <mxPoint x="360" y="1130" as="sourcePoint" />
            <mxPoint x="440" y="1130" as="targetPoint" />
          </mxGeometry>
        </mxCell>
        <mxCell id="AxUf1xsJegDbPLyApTB1-12" value="insights(trends, energyBalance, tips)" style="html=1;verticalAlign=bottom;endArrow=open;dashed=1;endSize=8;curved=0;rounded=0;" parent="1" source="AxUf1xsJegDbPLyApTB1-1" edge="1">
          <mxGeometry x="0.0008" relative="1" as="geometry">
            <mxPoint x="890" y="1180" as="sourcePoint" />
            <mxPoint x="360" y="1180" as="targetPoint" />
            <mxPoint as="offset" />
          </mxGeometry>
        </mxCell>
        <mxCell id="AxUf1xsJegDbPLyApTB1-14" value="5.insights()" style="html=1;verticalAlign=bottom;endArrow=open;dashed=1;endSize=8;curved=0;rounded=0;" parent="1" target="VnCtMdweLz9wtOO9IcF--2" edge="1">
          <mxGeometry x="-0.0083" relative="1" as="geometry">
            <mxPoint x="340" y="1210" as="sourcePoint" />
            <mxPoint x="260" y="1210" as="targetPoint" />
            <mxPoint as="offset" />
          </mxGeometry>
        </mxCell>
        <mxCell id="AxUf1xsJegDbPLyApTB1-15" value="maybeNotify(alert)" style="html=1;verticalAlign=bottom;endArrow=block;curved=0;rounded=0;" parent="1" target="AxUf1xsJegDbPLyApTB1-3" edge="1">
          <mxGeometry width="80" relative="1" as="geometry">
            <mxPoint x="350" y="1240" as="sourcePoint" />
            <mxPoint x="430" y="1240" as="targetPoint" />
          </mxGeometry>
        </mxCell>
        <mxCell id="AxUf1xsJegDbPLyApTB1-16" value="push notification" style="html=1;verticalAlign=bottom;endArrow=open;dashed=1;endSize=8;curved=0;rounded=0;" parent="1" edge="1">
          <mxGeometry relative="1" as="geometry">
            <mxPoint x="1100" y="1280" as="sourcePoint" />
            <mxPoint x="100" y="1280" as="targetPoint" />
          </mxGeometry>
        </mxCell>
      </root>
    </mxGraphModel>
  </diagram>
</mxfile>
